<svg width="16" height="16" viewBox="0 0 16 16" fill="none" xmlns="http://www.w3.org/2000/svg">
<g opacity="0.75" clip-path="url(#clip0_6_40246)">
<path fill-rule="evenodd" clip-rule="evenodd" d="M4.56985 3.6354C4.79331 3.92803 4.73723 4.3464 4.4446 4.56985C3.22126 5.50401 2.19641 6.67091 1.42838 8.00211C1.5011 8.1277 1.59728 8.2874 1.71628 8.47165C2.02362 8.94754 2.47878 9.5804 3.06969 10.2107C4.26263 11.4832 5.93008 12.6646 7.99456 12.6667C9.28309 12.6444 10.5309 12.2111 11.5559 11.4298C11.8487 11.2066 12.267 11.263 12.4902 11.5559C12.7134 11.8487 12.657 12.267 12.3641 12.4902C11.1114 13.4451 9.58591 13.9742 8.0109 13.9999L8 14C5.40033 14 3.40299 12.5157 2.09698 11.1226C1.43789 10.4196 0.93471 9.71913 0.596224 9.19502C0.426567 8.93232 0.297195 8.71224 0.209314 8.55601C0.16166 8.47129 0.114575 8.38607 0.0709135 8.2992C0.0709135 8.2992 0.148815 8.44676 0.0703819 8.29814C-0.0264925 8.10439 -0.023193 7.87566 0.0792296 7.68478C0.953436 6.05562 2.16594 4.63224 3.6354 3.51015C3.92803 3.28669 4.3464 3.34277 4.56985 3.6354ZM7.07441 6.13219C8.15918 7.21696 8.00063 7.05841 9.86782 8.92559C10.1372 9.1766 10.1521 9.59844 9.90107 9.86782C9.65694 10.1298 9.36254 10.34 9.03543 10.4857C8.70832 10.6315 8.35521 10.7098 7.99715 10.7161C7.6391 10.7225 7.28344 10.6566 6.95139 10.5225C6.61935 10.3884 6.31772 10.1887 6.06449 9.93551C5.81127 9.68229 5.61165 9.38065 5.47753 9.04861C5.34341 8.71656 5.27754 8.3609 5.28386 8.00285C5.29018 7.64479 5.36855 7.29168 5.5143 6.96457C5.66005 6.63746 5.87019 6.34306 6.13218 6.09893C6.40156 5.84792 6.8234 5.86281 7.07441 6.13219Z" fill="#112244"/>
<path fill-rule="evenodd" clip-rule="evenodd" d="M0.195262 0.195262C0.455612 -0.0650874 0.877722 -0.0650874 1.13807 0.195262L15.8047 14.8619C16.0651 15.1223 16.0651 15.5444 15.8047 15.8047C15.5444 16.0651 15.1223 16.0651 14.8619 15.8047L0.195262 1.13807C-0.0650873 0.877722 -0.0650873 0.455612 0.195262 0.195262Z" fill="#112244"/>
<path fill-rule="evenodd" clip-rule="evenodd" d="M7.99845 3.33333C7.57884 3.33234 7.16053 3.38015 6.75196 3.47579C6.39346 3.5597 6.03481 3.33711 5.9509 2.97861C5.86698 2.62011 6.08957 2.26146 6.44807 2.17754C6.95702 2.05841 7.47809 1.99883 8.00078 2L8.00158 2L8.00002 2H8.00078C10.759 2.00027 12.7577 3.47552 14.0357 4.88565C14.677 5.59331 15.1505 6.29846 15.4639 6.82631C15.621 7.0909 15.7389 7.31275 15.8185 7.47056C15.8617 7.55614 15.904 7.64228 15.9429 7.72992L15.9439 7.73225C16.0915 8.06957 15.9379 8.46319 15.6006 8.61077C15.2635 8.75822 14.8708 8.60479 14.723 8.26807C14.7192 8.2596 14.734 8.29187 14.7226 8.26721C14.6928 8.20104 14.6608 8.13587 14.6281 8.0711C14.5606 7.93725 14.4572 7.74243 14.3174 7.50703C14.0371 7.03487 13.6147 6.40669 13.0477 5.78101C11.9091 4.52461 10.2414 3.33333 8.00002 3.33333L7.99845 3.33333Z" fill="#112244"/>
<path fill-rule="evenodd" clip-rule="evenodd" d="M15.6476 7.41206C15.9723 7.58563 16.0949 7.98956 15.9213 8.31427C15.4947 9.11227 14.986 9.86355 14.4035 10.5559C14.1664 10.8376 13.7458 10.8738 13.4641 10.6368C13.1824 10.3997 13.1462 9.97916 13.3832 9.69744C13.9061 9.0761 14.3626 8.40187 14.7454 7.68572C14.919 7.36101 15.3229 7.23849 15.6476 7.41206Z" fill="#112244"/>
</g>
<defs>
<clipPath id="clip0_6_40246">
<rect width="16" height="16" fill="white"/>
</clipPath>
</defs>
</svg>
