<svg width="54" height="14" viewBox="0 0 54 14" fill="none" xmlns="http://www.w3.org/2000/svg">
<path opacity="0.53" d="M44.1309 2.86264L43.421 5.55204L38.5546 6.16546L44.1309 2.86264Z" fill="#366AF3"/>
<path opacity="0.84" d="M45.4481 13.7111L46.6574 8.82647L45.0888 8.19601L45.4481 13.7111Z" fill="#366AF3"/>
<path opacity="0.66" d="M43.4208 5.54919L42.1443 8.10512L38.569 6.17397L43.4208 5.54919Z" fill="#366AF3"/>
<path opacity="0.76" d="M45.4481 13.7111L45.0888 8.19599L42.1298 8.09659L45.4481 13.7111Z" fill="#366AF3"/>
<path opacity="0.59" d="M43.421 5.54919L45.1036 8.19315L42.1445 8.0966L43.421 5.54919Z" fill="#366AF3"/>
<path opacity="0.46" d="M44.1307 2.86264L48.1588 3.35395L43.4209 5.55204L44.1307 2.86264Z" fill="#366AF3"/>
<path opacity="0.46" d="M52.5639 1.63864L50.0314 4.50127L50.2096 1.85447L52.5639 1.63864Z" fill="#366AF3"/>
<path opacity="0.46" d="M53.9688 0L52.5638 1.63863L53.6621 1.76927L53.9688 0Z" fill="#366AF3"/>
<path opacity="0.66" d="M51.1996 3.12392L53.6621 1.76644L52.5638 1.6358L51.1996 3.12392Z" fill="#366AF3"/>
<path opacity="0.71" d="M46.6574 8.82646L46.7772 5.54068L45.0888 8.196L46.6574 8.82646Z" fill="#366AF3"/>
<path opacity="0.66" d="M46.7772 5.54068L45.0888 8.196L43.4209 5.55204L46.7772 5.54068Z" fill="#366AF3"/>
<path opacity="0.53" d="M48.1588 3.35394L46.7772 5.54068L43.4209 5.55203L48.1588 3.35394Z" fill="#366AF3"/>
<path opacity="0.76" d="M46.7772 5.54068L46.6575 8.82646L49.7479 11.8992L46.7772 5.54068Z" fill="#366AF3"/>
<path opacity="0.59" d="M51.3634 10.1811L49.7305 6.24783L49.7481 11.9021L51.3634 10.1811Z" fill="#366AF3"/>
<path opacity="0.59" d="M50.0315 4.50128L49.7306 6.24783L46.7774 5.54069L50.0315 4.50128Z" fill="#366AF3"/>
<path opacity="0.46" d="M51.527 6.86977L49.7305 6.24783L50.0226 4.50412L51.527 6.86977Z" fill="#366AF3"/>
<path opacity="0.46" d="M52.1839 10.0731L50.2268 7.02304H51.3456L52.1839 10.0731Z" fill="#366AF3"/>
<path opacity="0.53" d="M48.5271 2.7036L50.0314 4.50126L50.2096 1.85446L48.5271 2.7036Z" fill="#366AF3"/>
<path opacity="0.66" d="M49.7306 6.24779L46.7774 5.54065L49.7481 11.8992L49.7306 6.24779Z" fill="#366AF3"/>
<path opacity="0.71" d="M51.3633 10.1811L52.0147 10.5361L49.7538 11.8993L51.3633 10.1811Z" fill="#366AF3"/>
<path opacity="0.53" d="M52.1842 10.0363L49.7305 6.24783L51.3634 10.184L52.1842 10.0363Z" fill="#366AF3"/>
<path opacity="0.46" d="M48.527 2.70361L46.7744 5.54353L50.0285 4.50412L48.527 2.70361Z" fill="#366AF3"/>
<path d="M9.37994 4.97307L10.2572 5.43917L11.1398 4.97307V10.2237H9.37994V4.97307ZM9.24457 3.19852C9.26262 2.93821 9.37922 2.69587 9.56893 2.52439C9.75863 2.3529 10.006 2.26619 10.2572 2.28317C10.3846 2.2624 10.515 2.27051 10.6392 2.30696C10.7633 2.34341 10.8784 2.40733 10.9765 2.49431C11.0746 2.5813 11.1534 2.68929 11.2073 2.81086C11.2613 2.93243 11.2893 3.06468 11.2893 3.19852C11.2893 3.33237 11.2613 3.46462 11.2073 3.58619C11.1534 3.70776 11.0746 3.81575 10.9765 3.90273C10.8784 3.98972 10.7633 4.05364 10.6392 4.09009C10.515 4.12653 10.3846 4.13465 10.2572 4.11388C10.1338 4.12385 10.0097 4.10852 9.89205 4.06876C9.77438 4.029 9.66542 3.96559 9.57139 3.88215C9.47736 3.79872 9.4001 3.69689 9.34402 3.58248C9.28795 3.46807 9.25415 3.34333 9.24457 3.21537V3.19852Z" fill="#366AF3"/>
<path d="M4.8576 2.27191V5.31786H2.23973V2.27191H0.189453V10.2237H2.23973V7.16659H4.8576V10.2237H6.90787V2.27191H4.8576Z" fill="#366AF3"/>
<path d="M15.4889 10.2237H13.5161V6.36608H12.7499V4.69807H13.5161V2.8399H15.4889V4.69807H16.2551V6.36608H15.4889V10.2237Z" fill="#366AF3"/>
<path opacity="0.7" d="M20.034 8.41014H21.6882C22.335 8.41014 22.5353 8.02511 22.5353 7.69588C22.5353 7.36665 22.3236 6.99277 21.6882 6.99277H20.034V8.41014ZM20.034 5.33546H21.5451C21.6278 5.34731 21.7121 5.34312 21.7931 5.32316C21.8742 5.30319 21.9504 5.26783 22.0174 5.2191C22.0844 5.17037 22.1408 5.10924 22.1836 5.0392C22.2263 4.96915 22.2544 4.89158 22.2663 4.81092C22.2692 4.78123 22.2692 4.75134 22.2663 4.72164C22.2663 4.50959 22.1461 4.10782 21.5394 4.10782H20.034V5.33546ZM21.3219 2.27194C23.7889 2.27194 24.1838 3.70047 24.1838 4.42589C24.2034 4.77335 24.1156 5.11856 23.932 5.41695C23.7483 5.71535 23.4772 5.95324 23.1535 6.09994C23.5436 6.21412 23.8824 6.45409 24.1143 6.78055C24.3462 7.107 24.4575 7.50058 24.4299 7.89676C24.4299 9.14672 23.6916 10.2237 21.2475 10.2237H18.0078V2.27194H21.3219Z" fill="#366AF3"/>
<path opacity="0.7" d="M29.8498 10.2237H27.7817V4.09836H25.6026V2.27191H32.0289V4.08166H29.8498V10.2237Z" fill="#366AF3"/>
<path opacity="0.7" d="M40.2077 3.60491L38.8971 4.77901C38.3901 4.33711 37.7351 4.09846 37.06 4.10972C36.7755 4.10294 36.4923 4.15189 36.2269 4.25376C35.9614 4.35564 35.7188 4.50844 35.5131 4.7034C35.3073 4.89837 35.1424 5.13166 35.0278 5.3899C34.9132 5.64815 34.8512 5.92628 34.8452 6.20834C34.8395 6.26492 34.8395 6.32192 34.8452 6.3785C34.8282 6.65971 34.8672 6.94149 34.9601 7.20773C35.053 7.47398 35.198 7.71947 35.3866 7.93017C35.5753 8.14088 35.8041 8.31266 36.0598 8.43571C36.3155 8.55875 36.5931 8.63065 36.8769 8.64728H37.06C37.7331 8.66488 38.3885 8.43219 38.8971 7.99501L40.2077 9.1691C39.8024 9.59254 39.3142 9.92963 38.773 10.1598C38.2318 10.3899 37.649 10.5083 37.06 10.5077C35.9581 10.5077 34.9012 10.0738 34.122 9.3016C33.3428 8.52935 32.9051 7.48196 32.9051 6.38984C32.9051 5.29772 33.3428 4.25033 34.122 3.47809C34.9012 2.70584 35.9581 2.272 37.06 2.272C37.6488 2.26897 38.2319 2.3857 38.7733 2.61497C39.3148 2.84424 39.803 3.18117 40.2077 3.60491V3.60491Z" fill="#366AF3"/>
</svg>
