<svg width="15" height="14" viewBox="0 0 15 14" fill="none" xmlns="http://www.w3.org/2000/svg">
<path d="M7 1.5C7 1.22386 7.22386 1 7.5 1H14.5C14.7761 1 15 1.22386 15 1.5V2.5C15 2.77614 14.7761 3 14.5 3H7.5C7.22386 3 7 2.77614 7 2.5V1.5Z" fill="#264AAA"/>
<path d="M0 11C0 9.34315 1.34315 8 3 8C4.65685 8 6 9.34315 6 11C6 12.6569 4.65685 14 3 14C1.34315 14 0 12.6569 0 11Z" fill="#264AAA"/>
<path d="M7 9.5C7 9.22386 7.22386 9 7.5 9H14.5C14.7761 9 15 9.22386 15 9.5V10.5C15 10.7761 14.7761 11 14.5 11H7.5C7.22386 11 7 10.7761 7 10.5V9.5Z" fill="#264AAA"/>
<path d="M7 4.5C7 4.22386 7.22386 4 7.5 4H12.5C12.7761 4 13 4.22386 13 4.5C13 4.77614 12.7761 5 12.5 5H7.5C7.22386 5 7 4.77614 7 4.5Z" fill="#264AAA"/>
<path d="M7 12.5C7 12.2239 7.22386 12 7.5 12H12.5C12.7761 12 13 12.2239 13 12.5C13 12.7761 12.7761 13 12.5 13H7.5C7.22386 13 7 12.7761 7 12.5Z" fill="#264AAA"/>
<path d="M3 0C1.34315 0 0 1.34315 0 3C0 4.65685 1.34315 6 3 6C4.65685 6 6 4.65685 6 3C6 1.34315 4.65685 0 3 0ZM3 4.5C2.17157 4.5 1.5 3.82843 1.5 3C1.5 2.17157 2.17157 1.5 3 1.5C3.82843 1.5 4.5 2.17157 4.5 3C4.5 3.82843 3.82843 4.5 3 4.5Z" fill="#264AAA"/>
</svg>
