<svg width="26" height="14" viewBox="0 0 26 14" fill="none" xmlns="http://www.w3.org/2000/svg">
<path fill-rule="evenodd" clip-rule="evenodd" d="M13.8432 7V14H15.5711H17.2989V7V0H15.5711H13.8432V7ZM5.51242 1.33243C3.99968 1.59903 2.56999 2.49657 1.70365 3.72353C1.14506 4.51476 0.965485 4.92776 0.71766 5.99153C0.320375 7.69686 1.05632 9.88471 2.44781 11.135C3.11489 11.7344 3.95531 12.2292 4.7384 12.4838C5.94303 12.8753 7.70687 12.8338 8.78302 12.3886C10.1611 11.8184 11.0707 11.0745 11.7831 9.93502C12.6732 8.51141 12.8603 6.66898 12.2765 5.07808C11.5561 3.11542 9.79376 1.68409 7.63769 1.31054C7.16432 1.22856 6.03615 1.24019 5.51242 1.33243ZM18.7182 4.64308V5.78615L19.3353 6.37712C19.6747 6.70214 19.9524 6.99579 19.9524 7.02966C19.9524 7.06353 19.6747 7.35718 19.3353 7.6822L18.7182 8.27317V9.38658V10.5H19.892H21.0658L21.6863 9.90678C22.0277 9.58051 22.3261 9.31356 22.3496 9.31356C22.373 9.31356 22.6689 9.58051 23.007 9.90678L23.6218 10.5H24.8109H25.9999V9.38866V8.27738L25.3488 7.64946L24.6977 7.02159L25.3488 6.3926L25.9999 5.76367V4.6318V3.5H24.8439H23.6879L23.0235 4.1367L22.3591 4.77341L21.6947 4.1367L21.0303 3.5H19.8743H18.7182V4.64308ZM7.04325 5.34883C7.5945 5.48047 7.99474 5.81059 8.25398 6.34746C8.84831 7.57815 7.61011 8.98112 6.21381 8.65912C5.50273 8.49515 4.90822 7.81544 4.84787 7.09747C4.7737 6.21458 5.61961 5.31401 6.54957 5.28583C6.66182 5.28245 6.88397 5.31081 7.04325 5.34883Z" fill="#366AF3"/>
</svg>
