<svg width="14" height="14" viewBox="0 0 14 14" fill="none" xmlns="http://www.w3.org/2000/svg">
<path fill-rule="evenodd" clip-rule="evenodd" d="M6.99998 0.333008C7.46022 0.333008 7.83331 0.706104 7.83331 1.16634V6.16634H12.8333C13.2936 6.16634 13.6666 6.53944 13.6666 6.99967C13.6666 7.45991 13.2936 7.83301 12.8333 7.83301H7.83331V12.833C7.83331 13.2932 7.46022 13.6663 6.99998 13.6663C6.53974 13.6663 6.16665 13.2932 6.16665 12.833V7.83301H1.16665C0.706409 7.83301 0.333313 7.45991 0.333313 6.99967C0.333313 6.53944 0.706409 6.16634 1.16665 6.16634H6.16665V1.16634C6.16665 0.706104 6.53974 0.333008 6.99998 0.333008Z" fill="#366AF3"/>
</svg>
